#!OML:ASF I:\golf\golf\golf 2\Subject 1\2002-09-07\Subject1.ASF
:FULLY-SPECIFIED
:DEGREES
463
root -5.662 17.9702 -4.0336 -167.911 -4.6142 -177.329
lowerback -11.1951 16.3239 12.8935
upperback -14.63 18.4547 -1.6261
thorax -5.43471 7.06619 -6.39148
lowerneck -10.8432 -20.2514 -3.65292
upperneck 6.8644 -27.5027 5.29227
head 4.95133 -13.4014 -0.13421
rclavicle -1.86858e-014 -5.20816e-014
rhumerus 107.056 21.8194 -49.4888
rradius 71.1586
rwrist -0.0712062
rhand -52.0185 54.3879
rfingers 7.12502
rthumb -24.5252 25.9385
lclavicle -1.86858e-014 -5.20816e-014
lhumerus 64.1016 29.6033 48.9585
lradius 76.2597
lwrist 6.45109
lhand -39.1174 17.4751
lfingers 7.12502
lthumb -192.117 -132.896
rfemur 26.2996 -14.687 17.2662
rtibia 0
rfoot 40.0094 -28.9029
rtoes 33.5125
lfemur -27.119 -18.4148 -15.6892
ltibia 27.5536
lfoot 39.7553 -45.6889
ltoes 54.6379
464
root -5.65553 17.9742 -4.02502 -167.894 -4.52435 -177.259
lowerback -11.1425 16.2962 12.9789
upperback -14.6135 18.4217 -1.58425
thorax -5.4411 7.04347 -6.40459
lowerneck -10.804 -20.1545 -3.93928
upperneck 6.95251 -27.417 5.70368
head 5.06748 -13.3419 -0.00410651
rclavicle -1.4223e-013 -7.83212e-014
rhumerus 106.716 21.8936 -49.6205
rradius 70.8855
rwrist -0.549044
rhand -51.8516 54.2392
rfingers 7.12502
rthumb -24.3653 25.7682
lclavicle -1.4223e-013 -7.83212e-014
lhumerus 63.7012 29.3829 48.1717
lradius 75.7015
lwrist 7.21077
lhand -38.6116 16.7287
lfingers 7.12502
lthumb -191.629 -133.614
rfemur 26.2447 -14.5913 17.3349
rtibia 6.36111e-014
rfoot 40.1385 -28.5809
rtoes 33.1143
lfemur -27.1259 -18.4263 -15.5753
ltibia 27.4876
lfoot 39.563 -45.6948
ltoes 54.4716
465
root -5.64572 17.9792 -4.01717 -167.878 -4.4571 -177.16
lowerback -11.139 16.2863 13.0602
upperback -14.6029 18.4019 -1.56267
thorax -5.42066 7.0283 -6.42173
lowerneck -10.6573 -20.1058 -4.4284
upperneck 7.06319 -27.4056 6.2718
head 5.22607 -13.3163 0.183662
rclavicle 4.59193e-014 6.95746e-015
rhumerus 106.399 22.0089 -49.8811
rradius 70.4342
rwrist -0.912723
rhand -51.5127 53.8986
rfingers 7.12502
rthumb -24.0403 25.3842
lclavicle 4.59193e-014 6.95746e-015
lhumerus 63.371 29.0679 47.4299
lradius 75.1113
lwrist 7.83467
lhand -38.2181 16.1642
lfingers 7.12502
lthumb -191.25 -134.157
rfemur 26.203 -14.5174 17.4541
rtibia 2.54444e-014
rfoot 40.5272 -27.9302
rtoes 32.4331
lfemur -27.1358 -18.4186 -15.415
ltibia 27.4363
lfoot 39.3579 -45.7193
ltoes 54.2789
466
root -5.63562 17.9841 -4.00839 -167.778 -4.35197 -177.037
lowerback -11.1501 16.2803 13.1215
upperback -14.5953 18.3827 -1.53102
thorax -5.40458 7.01299 -6.41669
lowerneck -10.7309 -20.0718 -4.4788
upperneck 7.08903 -27.3485 6.28168
head 5.25088 -13.2846 0.187486
rclavicle 1.11816e-013 5.9039e-014
rhumerus 106.247 22.0903 -50.0909
rradius 69.7761
rwrist -1.25245
rhand -51.224 53.7008
rfingers 7.12502
rthumb -23.7635 25.1502
lclavicle 1.11816e-013 5.9039e-014
lhumerus 63.2119 28.748 46.8557
lradius 74.3878
lwrist 8.2095
lhand -37.8238 15.7928
lfingers 7.12502
lthumb -190.869 -134.508
rfemur 26.0555 -14.4091 17.6179
rtibia -1.90833e-014
rfoot 40.7244 -27.595
rtoes 32.161
lfemur -27.2514 -18.3892 -15.1919
ltibia 27.3809
lfoot 39.1802 -45.724
ltoes 54.2357
467
root -5.62811 17.9882 -3.99724 -167.67 -4.26 -176.934
lowerback -11.0792 16.2496 13.2036
upperback -14.5906 18.3486 -1.49108
thorax -5.43449 6.98636 -6.43654
lowerneck -10.969 -20.0481 -4.19347
upperneck 7.13193 -27.2693 5.87316
head 5.20106 -13.253 0.0453017
rclavicle -2.98177e-016 3.29983e-014
rhumerus 106.122 22.1096 -50.1986
rradius 69.1515
rwrist -1.78166
rhand -50.8321 53.5924
rfingers 7.12502
rthumb -23.3876 24.9935
lclavicle -2.98177e-016 3.29983e-014
lhumerus 62.9419 28.5072 46.1843
lradius 73.689
lwrist 8.64769
lhand -37.3836 15.5036
lfingers 7.12502
lthumb -190.445 -134.776
rfemur 25.8949 -14.3126 17.7535
rtibia -6.36111e-015
rfoot 40.5588 -27.7684
rtoes 32.4999
lfemur -27.3944 -18.3903 -14.9844
ltibia 27.3224
lfoot 39.1631 -45.4991
ltoes 54.3468
468
root -5.62165 17.9889 -3.98598 -167.654 -4.18691 -176.992
lowerback -10.9939 16.1582 13.1654
upperback -14.5211 18.2604 -1.44704
thorax -5.44026 6.95641 -6.40753
lowerneck -11.214 -20.0136 -3.93479
upperneck 7.20944 -27.1868 5.51102
head 5.17395 -13.2174 -0.0862562
rclavicle 2.70347e-014 3.37934e-014
rhumerus 106.004 22.1531 -50.2506
rradius 68.6055
rwrist -2.40809
rhand -50.3708 53.08
rfingers 7.12502
rthumb -22.945 24.4254
lclavicle 2.70347e-014 3.37934e-014
lhumerus 62.5095 28.3513 45.2932
lradius 73.0472
lwrist 9.39086
lhand -37.137 15.514
lfingers 7.12502
lthumb -190.207 -134.754
rfemur 25.8625 -14.2539 17.683
rtibia -1.01778e-013
rfoot 40.6492 -27.4912
rtoes 32.1269
lfemur -27.4277 -18.3813 -15.0224
ltibia 27.2755
lfoot 39.5158 -44.9992
ltoes 54.6269
469
root -5.61297 17.9905 -3.97585 -167.65 -4.08899 -177.054
lowerback -10.9981 16.066 13.065
upperback -14.3897 18.1616 -1.35835
thorax -5.36163 6.9397 -6.27888
lowerneck -11.3869 -19.9522 -3.7212
upperneck 7.11577 -27.063 5.25044
head 5.10097 -13.1631 -0.1659
rclavicle -5.10877e-014 -2.3059e-014
rhumerus 105.879 22.1101 -50.1806
rradius 68.1027
rwrist -3.07407
rhand -50.1015 52.5983
rfingers 7.12502
rthumb -22.6865 23.9119
lclavicle -5.10877e-014 -2.3059e-014
lhumerus 62.2613 28.1603 44.6384
lradius 72.277
lwrist 10.0942
lhand -36.8309 15.4348
lfingers 7.12502
lthumb -189.912 -134.818
rfemur 25.8446 -14.1747 17.6102
rtibia 1.59028e-014
rfoot 40.9517 -26.9865
rtoes 31.2826
lfemur -27.4584 -18.3309 -15.0877
ltibia 27.2539
lfoot 39.8624 -44.6207
ltoes 54.9258
470
root -5.60019 17.9943 -3.96415 -167.636 -3.99241 -177
lowerback -10.9403 16.0075 13.0381
upperback -14.2947 18.1114 -1.27426
thorax -5.32753 6.93396 -6.19631
lowerneck -11.5425 -19.9139 -3.47114
upperneck 6.97075 -26.9702 4.96987
head 5.00321 -13.1267 -0.251793
rclavicle -3.57812e-014 -6.24184e-014
rhumerus 105.7 21.9376 -50.0845
rradius 67.5126
rwrist -3.67747
rhand -49.8483 52.3435
rfingers 7.12502
rthumb -22.4435 23.6276
lclavicle -3.57812e-014 -6.24184e-014
lhumerus 62.1548 27.8679 44.1761
lradius 71.4531
lwrist 10.6629
lhand -36.4698 15.1235
lfingers 7.12502
lthumb -189.563 -135.114
rfemur 25.8017 -14.0851 17.687
rtibia 3.81667e-014
rfoot 40.9602 -26.8508
rtoes 31.0927
lfemur -27.5097 -18.3275 -14.9566
ltibia 27.2588
lfoot 39.6145 -44.6429
ltoes 54.8921
